<?xml version="1.0" encoding="utf-8"?>
<!-- Generator: Adobe Illustrator 23.0.1, SVG Export Plug-In . SVG Version: 6.00 Build 0)  -->
<svg version="1.1" xmlns="http://www.w3.org/2000/svg" xmlns:xlink="http://www.w3.org/1999/xlink" x="0px" y="0px"
	 viewBox="0 0 33 33" style="enable-background:new 0 0 33 33;" xml:space="preserve">
<style type="text/css">
	.st0{display:none;}
	.st1{display:inline;}
	.st2{fill:#FF7373;}
	.st3{fill:#00CC66;}
	.st4{fill:#FFFF00;}
	.st5{fill:#FF0062;}
	.st6{fill:none;stroke:#00CC30;stroke-width:11;stroke-miterlimit:10;}
	.st7{fill:none;stroke:#665510;stroke-width:11;stroke-miterlimit:10;}
	.st8{fill:#006600;}
	.st9{fill:#665510;}
	.st10{fill:#FFCA00;}
	.st11{fill:none;stroke:#FFCA00;stroke-width:11;stroke-miterlimit:10;}
	.st12{fill:#97CAFF;}
	.st13{fill:#996633;}
	.st14{fill:#774E29;}
	.st15{fill:none;stroke:#00CC30;stroke-width:1;stroke-linejoin:round;stroke-miterlimit:10;}
</style>
<g id="Layer_1" class="st0">
</g>
<g id="Layer_2">
	<path class="st15" d="M21.21,16.5l9.31-9.31c1.3-1.3,1.3-3.41,0-4.71c-1.3-1.3-3.41-1.3-4.71,0l-9.31,9.31L7.19,2.48
		c-1.3-1.3-3.41-1.3-4.71,0c-1.3,1.3-1.3,3.41,0,4.71l9.31,9.31l-9.31,9.31c-1.3,1.3-1.3,3.41,0,4.71c0.65,0.65,1.5,0.98,2.36,0.98
		s1.71-0.33,2.36-0.98l9.31-9.31l9.31,9.31c0.65,0.65,1.5,0.98,2.36,0.98s1.71-0.33,2.36-0.98c1.3-1.3,1.3-3.41,0-4.71L21.21,16.5z"
		/>
</g>
</svg>
