<svg id="Layer_2" data-name="Layer 2" xmlns="http://www.w3.org/2000/svg" viewBox="0 0 67.45 110.57"><defs><style>.cls-1{fill:#0c6;}.cls-2{fill:#ff0;}.cls-3{fill:#ff0062;}.cls-4{fill:#963;}.cls-5{fill:#774e29;}</style></defs><title>images</title><path class="cls-1" d="M44.54,88.86a5.11,5.11,0,0,0,.9-4.62,9,9,0,0,0-1.75-2.94,14.86,14.86,0,0,1-2.43-4c-1.68-4.51,1.79-7.8,4.09-10a21.41,21.41,0,0,0,1.52-1.54c2-2.43,3-4.61,3.1-6.66a6,6,0,0,0-1.15-3.6A25.35,25.35,0,0,1,47.54,53c-1.75-4.11,1.23-6.87,3-8.52a11.48,11.48,0,0,0,1.52-1.59c3.39-4.92,2.51-10.08,1.18-13.55-.16-.42-.34-.89-1.28-.53,0,0-1.82.73-1.2,2.35,2.36,6.14-1.1,9.73-3.63,12.36a14.13,14.13,0,0,0-2.82,3.56,7.58,7.58,0,0,0-.6,4.47,11.38,11.38,0,0,0,1.13,2.24c1.08,1.84,2.3,3.94,1.94,6.26-.42,2.67-2.61,4.68-4.55,6.46A19,19,0,0,0,40.69,68a12.12,12.12,0,0,0-2.87,5.13,8,8,0,0,0,.56,5.09c.2.34.94,1.39,1.48,2.17,2.66,3.81,3.46,5,2.17,6.81-.5.71-.35,1.35.44,1.9A1.36,1.36,0,0,0,44.54,88.86Z"/><circle class="cls-2" cx="51.4" cy="28.84" r="6.13"/><path class="cls-3" d="M51.48,27.11c-.25-.37-6.13-9.15-3.38-12.47a5,5,0,0,1,3.25-1.84h0a8.55,8.55,0,0,1,2.12.76,3.12,3.12,0,0,1,2,3c-.2,2.74-3.63,10.26-3.78,10.58Zm-.13-14a4.78,4.78,0,0,0-3,1.73C46,17.7,50.66,25.3,51.58,26.71c.61-1.35,3.47-7.81,3.64-10.22S51.66,13.17,51.35,13.1Z"/><path class="cls-3" d="M52.18,27.23l-.26,0c-.14-.43-3.55-10.42,0-12.92a5,5,0,0,1,3.61-.94h0a8.6,8.6,0,0,1,1.85,1.29A3.13,3.13,0,0,1,58.57,18C57.67,20.6,52.41,27,52.18,27.23Zm3-13.63a4.91,4.91,0,0,0-3.14.91c-3,2.16-.46,10.72,0,12.32.94-1.15,5.37-6.64,6.17-8.93s-2.58-4.13-2.86-4.27Z"/><path class="cls-3" d="M52.57,27.49l-.23-.11c0-.45-.74-11,3.31-12.49a5.05,5.05,0,0,1,3.73,0l0,0a8.58,8.58,0,0,1,1.46,1.72,3.15,3.15,0,0,1,.27,3.56C59.59,22.5,52.86,27.29,52.57,27.49Zm5.28-12.62a5,5,0,0,0-2.1.3c-3.49,1.3-3.21,10.23-3.13,11.92,1.2-.87,6.91-5,8.26-7s-1.41-4.66-1.65-4.87A4.27,4.27,0,0,0,57.85,14.87Z"/><path class="cls-3" d="M52.88,27.84l-.2-.17c.09-.44,2.13-10.8,6.44-11.2a5,5,0,0,1,3.59,1l0,0a8.45,8.45,0,0,1,1,2A3.14,3.14,0,0,1,63,23C61,24.84,53.21,27.72,52.88,27.84ZM60,16.76a4.75,4.75,0,0,0-.84,0c-3.71.34-5.75,9-6.1,10.69,1.38-.52,8-3.07,9.8-4.65s-.17-4.87-.34-5.13A4.73,4.73,0,0,0,60,16.76Z"/><path class="cls-3" d="M53.09,28.26,52.94,28c.2-.4,4.86-9.87,9.12-9.16a5,5,0,0,1,3.21,1.9l0,0a8.6,8.6,0,0,1,.4,2.22,3.13,3.13,0,0,1-1.55,3.22C61.67,27.45,53.44,28.23,53.09,28.26Zm8.68-9.11c-3.62-.26-7.68,7.31-8.43,8.78,1.47-.15,8.49-.9,10.67-2s1.1-4.74,1-5a4.89,4.89,0,0,0-3-1.75Z"/><path class="cls-3" d="M60.71,29.67c-3.32-.24-7.28-.91-7.52-1l-.09-.25c.29-.34,7.24-8.29,11.17-6.49a5.09,5.09,0,0,1,2.62,2.66v0a8.13,8.13,0,0,1-.18,2.25c-.36,1.54-1.16,2.48-2.33,2.7A16.57,16.57,0,0,1,60.71,29.67Zm-7.2-1.21c1.46.24,8.44,1.33,10.81.88s2.29-4.3,2.27-4.62a4.8,4.8,0,0,0-2.45-2.46C60.76,20.7,54.64,27.21,53.51,28.46Z"/><path class="cls-3" d="M63.73,33c-2.74-.19-10.25-3.63-10.57-3.78l0-.26c.37-.25,9.14-6.13,12.47-3.37a5,5,0,0,1,1.84,3.24v0A8.41,8.41,0,0,1,66.68,31,3.12,3.12,0,0,1,63.73,33ZM53.53,29c1.36.61,7.81,3.47,10.22,3.64s3.33-3.55,3.39-3.87a4.82,4.82,0,0,0-1.72-3C62.55,23.4,55,28.11,53.53,29Z"/><path class="cls-3" d="M62.9,36.15a2.42,2.42,0,0,1-.65-.13c-2.6-.9-9-6.17-9.24-6.39l.05-.26c.42-.15,10.42-3.56,12.92,0A4.94,4.94,0,0,1,66.91,33v0a8.7,8.7,0,0,1-1.28,1.86A3.44,3.44,0,0,1,62.9,36.15Zm-9.48-6.58c1.14.94,6.64,5.37,8.92,6.16s4.13-2.58,4.28-2.86a4.84,4.84,0,0,0-.89-3.36C63.58,26.47,55,29.05,53.42,29.57Z"/><path class="cls-3" d="M61.26,39A2.47,2.47,0,0,1,60,38.58C57.74,37,53,30.3,52.75,30l.12-.24c.44,0,11-.74,12.48,3.31a5,5,0,0,1,0,3.73l0,0a8.24,8.24,0,0,1-1.72,1.46A3.88,3.88,0,0,1,61.26,39Zm-8.1-8.94c.87,1.2,5,6.9,7,8.26s4.66-1.42,4.87-1.66a4.77,4.77,0,0,0,0-3.47C63.77,29.7,54.84,30,53.16,30.07Z"/><path class="cls-3" d="M59,41.37a2.58,2.58,0,0,1-1.83-.89c-1.8-2.08-4.68-9.82-4.81-10.15l.17-.2c.45.08,10.81,2.13,11.21,6.43a5,5,0,0,1-1,3.59l0,0a8.22,8.22,0,0,1-2,1A4.74,4.74,0,0,1,59,41.37ZM52.78,30.48c.53,1.38,3.07,8,4.66,9.8s4.86-.17,5.13-.34a4.83,4.83,0,0,0,.91-3.35C63.13,32.88,54.43,30.83,52.78,30.48Zm9.89,9.57Z"/><path class="cls-3" d="M56.59,43.12A2.88,2.88,0,0,1,54,41.58c-1.2-2.47-2-10.69-2-11l.21-.15c.41.19,9.88,4.85,9.16,9.11a5,5,0,0,1-1.89,3.21l0,0a8,8,0,0,1-2.21.4A4.37,4.37,0,0,1,56.59,43.12ZM52.31,30.78c.15,1.48.9,8.5,2,10.67s4.74,1.1,5,1a4.76,4.76,0,0,0,1.75-3C61.69,35.78,53.81,31.55,52.31,30.78Zm7.07,11.81h0Z"/><path class="cls-3" d="M54.51,44.33a8.21,8.21,0,0,1-1.19-.18,3.13,3.13,0,0,1-2.71-2.33c-.52-2.7.86-10.84.92-11.19l.25-.09c.34.3,8.28,7.25,6.48,11.17a5,5,0,0,1-2.66,2.62h0A9.07,9.07,0,0,1,54.51,44.33ZM51.78,31c-.24,1.46-1.33,8.44-.87,10.82s4.3,2.28,4.61,2.27A4.85,4.85,0,0,0,58,41.59C59.54,38.2,53,32.08,51.78,31Z"/><path class="cls-3" d="M51.41,44.89a9.05,9.05,0,0,1-2.12-.76c-1.4-.75-2.1-1.77-2-3,.2-2.75,3.64-10.26,3.78-10.58l.26,0c.26.37,6.13,9.15,3.38,12.47a5,5,0,0,1-3.25,1.84ZM51.22,31c-.61,1.35-3.46,7.8-3.64,10.22s3.56,3.32,3.87,3.39a4.87,4.87,0,0,0,3-1.73C56.84,40,52.14,32.39,51.22,31Z"/><path class="cls-3" d="M47.6,44.39l-.3,0,0,0a8.35,8.35,0,0,1-1.85-1.28,3.13,3.13,0,0,1-1.18-3.37c.9-2.6,6.16-9,6.39-9.24l.26.05c.14.43,3.55,10.42,0,12.92A5.14,5.14,0,0,1,47.6,44.39Zm-.23-.33a4.81,4.81,0,0,0,3.36-.88c3-2.16.46-10.72,0-12.32-.94,1.15-5.37,6.64-6.17,8.93S47.09,43.92,47.37,44.06Z"/><path class="cls-3" d="M44.93,43.12a4.71,4.71,0,0,1-1.51-.35l0,0A8.61,8.61,0,0,1,41.93,41a3.12,3.12,0,0,1-.26-3.56c1.54-2.27,8.27-7.06,8.56-7.26l.24.11c0,.45.73,11-3.32,12.49A5.2,5.2,0,0,1,44.93,43.12Zm-1.36-.62a4.8,4.8,0,0,0,3.48,0c3.49-1.29,3.21-10.22,3.13-11.91-1.2.87-6.91,5-8.26,7S43.34,42.29,43.57,42.5Z"/><path class="cls-3" d="M42.79,41.23a5,5,0,0,1-2.7-1l0,0a8.45,8.45,0,0,1-1-2,3.14,3.14,0,0,1,.67-3.51c2.08-1.8,9.82-4.68,10.15-4.8l.2.17c-.09.44-2.13,10.8-6.43,11.2A5.45,5.45,0,0,1,42.79,41.23ZM40.31,40a4.78,4.78,0,0,0,3.35.91c3.71-.35,5.75-9,6.11-10.69-1.39.52-8,3.07-9.81,4.65S40.13,39.74,40.31,40Z"/><path class="cls-3" d="M41,38.84l-.26,0a5,5,0,0,1-3.22-1.89l0,0a8.71,8.71,0,0,1-.4-2.22,3.13,3.13,0,0,1,1.55-3.22c2.47-1.2,10.7-2,11.05-2l.15.22C49.67,30,45.2,39.14,41,38.84Zm-3.22-2.08a4.9,4.9,0,0,0,3,1.75c3.66.63,7.9-7.25,8.66-8.75-1.47.15-8.49.9-10.67,1.95S37.69,36.46,37.79,36.76Z"/><path class="cls-3" d="M39.56,36a2.78,2.78,0,0,1-1-.25,5,5,0,0,1-2.61-2.66v0a8.57,8.57,0,0,1,.18-2.25c.36-1.54,1.16-2.48,2.33-2.7,2.7-.52,10.85.85,11.19.91l.09.25C49.43,29.53,43.56,36.25,39.56,36Zm-3.35-3a4.8,4.8,0,0,0,2.45,2.46c3.38,1.56,9.5-5,10.63-6.21-1.46-.23-8.44-1.33-10.81-.87S36.19,32.65,36.21,33Z"/><path class="cls-3" d="M39.17,32.86a3.36,3.36,0,0,1-2-.72,5,5,0,0,1-1.83-3.24v0a8.27,8.27,0,0,1,.76-2.12,3.13,3.13,0,0,1,3-2c2.74.2,10.25,3.64,10.57,3.78l0,.27C49.35,29,43.13,33.15,39.17,32.86Zm-3.51-4a4.81,4.81,0,0,0,1.73,3c2.86,2.38,10.46-2.33,11.88-3.24-1.35-.61-7.81-3.47-10.22-3.65S35.72,28.58,35.66,28.89Z"/><path class="cls-3" d="M40.42,29.91a4.63,4.63,0,0,1-3.6-1.56,5,5,0,0,1-.93-3.61v0a8.28,8.28,0,0,1,1.29-1.86,3.13,3.13,0,0,1,3.37-1.18c2.59.9,9,6.17,9.23,6.39l0,.26C49.44,28.43,44.27,30.19,40.42,29.91Zm-4.24-5.09a4.85,4.85,0,0,0,.89,3.36c2.15,3,10.71.46,12.32-.06-1.15-.94-6.65-5.37-8.93-6.16S36.33,24.53,36.18,24.82Z"/><path class="cls-3" d="M45.23,27.89c-3.17-.23-6.93-1-7.78-3.29a5,5,0,0,1,0-3.73l0,0a8.71,8.71,0,0,1,1.72-1.45,3.11,3.11,0,0,1,3.56-.27c2.28,1.54,7.06,8.27,7.27,8.56l-.11.24A37.93,37.93,0,0,1,45.23,27.89ZM37.74,21a4.88,4.88,0,0,0,0,3.47C39,28,48,27.71,49.64,27.62c-.86-1.2-5-6.9-7-8.26S38,20.78,37.74,21Z"/><path class="cls-3" d="M50.23,27.56c-.44-.08-10.8-2.13-11.21-6.43a5,5,0,0,1,1-3.59l0,0a8,8,0,0,1,2-1,3.11,3.11,0,0,1,3.5.66c1.8,2.08,4.69,9.82,4.81,10.15Zm-10-9.81a4.83,4.83,0,0,0-.91,3.35c.35,3.71,9,5.76,10.7,6.11-.53-1.39-3.07-8-4.65-9.8S40.5,17.57,40.23,17.75Z"/><path class="cls-3" d="M50.6,27.3c-.4-.19-9.88-4.85-9.16-9.11A5,5,0,0,1,43.33,15l0,0a8,8,0,0,1,2.22-.4A3.11,3.11,0,0,1,48.8,16.1c1.2,2.48,2,10.7,2,11ZM43.49,15.24a4.76,4.76,0,0,0-1.75,3c-.63,3.67,7.25,7.9,8.75,8.67-.15-1.48-.9-8.5-2-10.67S43.79,15.14,43.49,15.24Z"/><path class="cls-3" d="M51,27.15c-.34-.3-8.29-7.25-6.49-11.18a5,5,0,0,1,2.66-2.61h0a8.28,8.28,0,0,1,2.24.19,3.13,3.13,0,0,1,2.71,2.33c.52,2.7-.86,10.84-.92,11.19Zm-3.75-13.5a4.85,4.85,0,0,0-2.47,2.45c-1.55,3.39,5,9.51,6.21,10.64.24-1.47,1.33-8.44.87-10.82S47.6,13.63,47.28,13.65Z"/><path class="cls-1" d="M32,98.1c1.07.21,1.18-.39,1.26-.78.44-2.26.17-3.53-1.07-5a13.76,13.76,0,0,0-2.72-1.82c-2.29-1.34-4.67-2.72-5.55-5.06-1.1-3,.33-6.2,1.48-8.81a18.06,18.06,0,0,0,1-2.42,11,11,0,0,0-.05-6.56,5.93,5.93,0,0,0-2.55-2.88,26.21,26.21,0,0,1-2.34-1.9c-3.18-3-1.52-6.78-.52-9a13.31,13.31,0,0,0,.77-2.05,13.92,13.92,0,0,0-4.13-12.48,1.31,1.31,0,0,0-2,.11,1.27,1.27,0,0,0-.09,2c4.79,4.76,3.18,9.35,2,12.71A18.39,18.39,0,0,0,16.32,58a7.66,7.66,0,0,0,1,4.94,6,6,0,0,0,2,1.73,12.34,12.34,0,0,1,3.11,2.58c2.49,3.07.86,7-.11,9.33-.16.4-.32.78-.44,1.12-.95,2.71-1.52,4.95-1.19,7.12a8.06,8.06,0,0,0,2,4.32,51.82,51.82,0,0,0,5.57,3.56,2.78,2.78,0,0,0-2.24.2l1.4,2.61,3,.59C30.14,97.72,31.91,98.08,32,98.1Z"/><circle class="cls-2" cx="15.79" cy="38.79" r="6.05"/><path class="cls-3" d="M15.74,37.07c-.27-.35-6.68-8.56-4.2-12a4.94,4.94,0,0,1,3.06-2h0a8,8,0,0,1,2.14.6A3.08,3.08,0,0,1,19,26.36c0,2.71-2.85,10.35-3,10.67ZM14.62,23.3a4.72,4.72,0,0,0-2.84,1.91c-2.14,3,3,10.14,4,11.46.5-1.37,2.86-7.92,2.86-10.31S14.94,23.34,14.62,23.3Z"/><path class="cls-3" d="M16.44,37.15l-.26,0c-.17-.41-4.23-10-.94-12.71a4.92,4.92,0,0,1,3.49-1.18h0a8.6,8.6,0,0,1,1.92,1.13,3.1,3.1,0,0,1,1.4,3.24C21.38,30.23,16.64,36.86,16.44,37.15Zm2-13.63a4.81,4.81,0,0,0-3,1.12c-2.84,2.33.3,10.57.93,12.11.84-1.19,4.81-6.92,5.43-9.22s-2.83-3.88-3.12-4Z"/><path class="cls-3" d="M16.85,37.37l-.25-.09c-.06-.44-1.5-10.76,2.38-12.53a5,5,0,0,1,3.67-.23l0,0a8.75,8.75,0,0,1,1.55,1.59,3.1,3.1,0,0,1,.52,3.49C23.4,32,17.11,37.15,16.85,37.37Zm4.29-12.79a4.85,4.85,0,0,0-2,.45C15.76,26.55,16.66,35.32,16.86,37,18,36,23.3,31.53,24.5,29.47s-1.73-4.49-2-4.68A4.46,4.46,0,0,0,21.14,24.58Z"/><path class="cls-3" d="M17.18,37.69,17,37.54C17,37.1,18.3,26.76,22.5,26.06a4.88,4.88,0,0,1,3.61.73l0,0a8.89,8.89,0,0,1,1.09,1.94c.56,1.46.43,2.67-.41,3.5C24.91,34.17,17.49,37.55,17.18,37.69Zm6.19-11.41a6.05,6.05,0,0,0-.82.07c-3.62.61-5,9.31-5.25,11,1.32-.62,7.63-3.58,9.31-5.27s-.5-4.78-.69-5A4.71,4.71,0,0,0,23.37,26.28Z"/><path class="cls-3" d="M17.41,38.09l-.16-.2c.16-.41,4.08-10.06,8.32-9.66a4.9,4.9,0,0,1,3.29,1.64l0,0a8.22,8.22,0,0,1,.56,2.15,3.09,3.09,0,0,1-1.3,3.28C25.79,36.69,17.75,38,17.41,38.09Zm7.89-9.57c-3.57,0-7,7.73-7.67,9.23,1.44-.25,8.29-1.49,10.36-2.68s.75-4.74.63-5a4.69,4.69,0,0,0-3.08-1.51Z"/><path class="cls-3" d="M25,38.94c-3.29,0-7.24-.38-7.47-.41l-.11-.23C17.7,37.94,24,29.63,28,31.12a5,5,0,0,1,2.76,2.43v0a8.7,8.7,0,0,1,0,2.23,3.07,3.07,0,0,1-2.1,2.82A15.65,15.65,0,0,1,25,38.94Zm-7.18-.68c1.46.13,8.4.71,10.71.1s1.94-4.39,1.91-4.7a4.75,4.75,0,0,0-2.59-2.26C24.42,30.11,18.86,37,17.83,38.26Z"/><path class="cls-3" d="M28.21,42c-2.71,0-10.35-2.85-10.67-3l0-.26c.35-.27,8.57-6.68,12-4.2a4.9,4.9,0,0,1,2,3.06v0a8,8,0,0,1-.6,2.14A3.08,3.08,0,0,1,28.21,42ZM17.9,38.81c1.37.5,7.93,2.86,10.31,2.86s3-3.73,3.06-4.05a4.72,4.72,0,0,0-1.91-2.84C26.37,32.64,19.23,37.81,17.9,38.81Z"/><path class="cls-3" d="M27.62,45.17a2.48,2.48,0,0,1-.65-.09c-2.62-.7-9.26-5.44-9.54-5.64l0-.26c.41-.17,10-4.23,12.72-.94a4.94,4.94,0,0,1,1.17,3.49v0a8.17,8.17,0,0,1-1.13,1.92A3.4,3.4,0,0,1,27.62,45.17Zm-9.8-5.81c1.2.84,6.92,4.81,9.22,5.43s3.89-2.83,4-3.12a4.82,4.82,0,0,0-1.11-3.24C27.6,35.59,19.36,38.73,17.82,39.36Z"/><path class="cls-3" d="M26.21,48.1A2.52,2.52,0,0,1,25,47.76c-2.35-1.36-7.54-7.65-7.76-7.92l.09-.24c.44-.06,10.76-1.5,12.53,2.38a5,5,0,0,1,.23,3.67l0,0a8,8,0,0,1-1.59,1.55A3.83,3.83,0,0,1,26.21,48.1ZM17.6,39.86C18.54,41,23,46.3,25.11,47.5s4.48-1.73,4.67-2a4.78,4.78,0,0,0-.23-3.42C28,38.76,19.25,39.66,17.6,39.86Z"/><path class="cls-3" d="M24.19,50.57a2.55,2.55,0,0,1-1.87-.75c-1.92-1.91-5.3-9.33-5.44-9.64L17,40c.44.05,10.78,1.33,11.48,5.53a5,5,0,0,1-.72,3.61l0,0a8.61,8.61,0,0,1-1.94,1.09A4.45,4.45,0,0,1,24.19,50.57ZM17.26,40.3c.62,1.32,3.59,7.63,5.27,9.31s4.78-.5,5-.69a4.8,4.8,0,0,0,.66-3.37C27.62,41.93,18.91,40.53,17.26,40.3ZM27.67,49Z"/><path class="cls-3" d="M21.9,52.47a2.85,2.85,0,0,1-2.66-1.33c-1.35-2.35-2.7-10.39-2.76-10.73l.2-.16c.42.16,10.07,4.08,9.66,8.32a5,5,0,0,1-1.63,3.29l0,0a8.22,8.22,0,0,1-2.15.56ZM16.82,40.63c.25,1.44,1.49,8.29,2.68,10.36s4.75.75,5,.63A4.75,4.75,0,0,0,26,48.54C26.4,44.88,18.35,41.28,16.82,40.63Zm7.79,11.12h0Z"/><path class="cls-3" d="M19.94,53.8a7.24,7.24,0,0,1-1.18-.09c-1.55-.24-2.53-1-2.83-2.1C15.23,49,16,40.88,16,40.54l.24-.11C16.63,40.7,25,47,23.45,51A5,5,0,0,1,21,53.73h0A9.41,9.41,0,0,1,19.94,53.8Zm-3.63-13c-.13,1.46-.71,8.4-.09,10.71s4.39,1.94,4.7,1.91a4.79,4.79,0,0,0,2.25-2.59C24.46,47.42,17.62,41.86,16.31,40.83Z"/><path class="cls-3" d="M16.93,54.57a8,8,0,0,1-2.14-.6,3.08,3.08,0,0,1-2.19-2.76c0-2.71,2.86-10.35,3-10.67l.25,0c.28.35,6.68,8.57,4.21,12a4.91,4.91,0,0,1-3.07,2ZM15.76,40.9c-.5,1.37-2.86,7.93-2.86,10.31s3.74,3,4,3.06a4.72,4.72,0,0,0,2.84-1.91C21.93,49.37,16.76,42.23,15.76,40.9Z"/><path class="cls-3" d="M13.14,54.36a2.13,2.13,0,0,1-.29,0h0a8.39,8.39,0,0,1-1.92-1.13A3.08,3.08,0,0,1,9.5,50c.7-2.62,5.43-9.26,5.63-9.54l.26,0c.17.41,4.23,10,.94,12.72A5.12,5.12,0,0,1,13.14,54.36Zm-.24-.31a4.81,4.81,0,0,0,3.24-1.11c2.84-2.34-.3-10.58-.92-12.12C14.37,42,10.4,47.74,9.78,50S12.61,53.93,12.9,54.05Z"/><path class="cls-3" d="M10.43,53.3a4.2,4.2,0,0,1-1.51-.25l0,0a8,8,0,0,1-1.56-1.59A3.08,3.08,0,0,1,6.82,48c1.35-2.35,7.64-7.54,7.91-7.76l.24.09c.06.44,1.5,10.76-2.38,12.53A5.28,5.28,0,0,1,10.43,53.3Zm-1.38-.52a4.79,4.79,0,0,0,3.42-.23c3.34-1.52,2.44-10.3,2.24-11.95-1.12.94-6.44,5.44-7.64,7.51S8.8,52.59,9.05,52.78Z"/><path class="cls-3" d="M8.18,51.59a4.87,4.87,0,0,1-2.72-.8l0,0a8,8,0,0,1-1.1-1.94,3.1,3.1,0,0,1,.41-3.5c1.92-1.92,9.33-5.3,9.65-5.44l.21.15c-.06.44-1.34,10.78-5.54,11.48A4.67,4.67,0,0,1,8.18,51.59Zm-2.52-1A4.74,4.74,0,0,0,9,51.22c3.63-.6,5-9.31,5.26-11C13,40.88,6.65,43.85,5,45.53S5.47,50.31,5.66,50.56Z"/><path class="cls-3" d="M6.27,49.35H6a5,5,0,0,1-3.29-1.63l0,0a8,8,0,0,1-.55-2.15,3.1,3.1,0,0,1,1.29-3.28c2.35-1.35,10.39-2.7,10.73-2.76l.17.2C14.16,40.09,10.41,49.35,6.27,49.35ZM3,47.54A4.81,4.81,0,0,0,6,49c3.66.37,7.26-7.69,7.91-9.22-1.44.25-8.29,1.49-10.36,2.68S2.84,47.25,3,47.54Z"/><path class="cls-3" d="M4.63,46.63a2.92,2.92,0,0,1-1-.18A4.88,4.88,0,0,1,.85,44l0,0a8.61,8.61,0,0,1,0-2.22c.24-1.55,1-2.53,2.1-2.83C5.58,38.23,13.69,39,14,39l.1.24C13.9,39.6,8.59,46.63,4.63,46.63Zm-3.5-2.71a4.75,4.75,0,0,0,2.58,2.25c3.44,1.29,9-5.55,10-6.86-1.46-.13-8.4-.71-10.7-.09S1.09,43.61,1.13,43.92Z"/><path class="cls-3" d="M4,43.6A3.35,3.35,0,0,1,2,43,5,5,0,0,1,0,40v0a8.5,8.5,0,0,1,.6-2.14A3.08,3.08,0,0,1,3.36,35.6c2.71,0,10.35,2.86,10.67,3l0,.25C13.78,39.06,8,43.6,4,43.6ZM.3,40a4.72,4.72,0,0,0,1.91,2.84c3,2.14,10.14-3,11.46-4-1.37-.5-7.92-2.86-10.31-2.86S.34,39.64.3,40Z"/><path class="cls-3" d="M5.05,40.62a4.52,4.52,0,0,1-3.64-1.29A4.91,4.91,0,0,1,.23,35.85v0a8.84,8.84,0,0,1,1.13-1.92A3.09,3.09,0,0,1,4.61,32.5c2.62.7,9.25,5.43,9.54,5.63l0,.26C13.83,38.51,8.86,40.62,5.05,40.62ZM.53,35.9a4.71,4.71,0,0,0,1.11,3.24C4,42,12.21,38.84,13.75,38.22c-1.19-.85-6.92-4.82-9.22-5.44S.65,35.61.53,35.9Z"/><path class="cls-3" d="M9.65,38.28c-3.14,0-6.89-.49-7.9-2.69a5,5,0,0,1-.23-3.67l0,0a8.29,8.29,0,0,1,1.59-1.56,3.09,3.09,0,0,1,3.49-.51c2.34,1.35,7.53,7.64,7.75,7.91l-.09.24A35.34,35.34,0,0,1,9.65,38.28ZM1.79,32.05A4.76,4.76,0,0,0,2,35.47C3.55,38.81,12.32,37.91,14,37.71c-.94-1.12-5.44-6.44-7.5-7.64S2,31.8,1.79,32.05Z"/><path class="cls-3" d="M14.54,37.61c-.44-.06-10.78-1.34-11.48-5.54a4.9,4.9,0,0,1,.73-3.61l0,0a8.89,8.89,0,0,1,1.94-1.09,3.1,3.1,0,0,1,3.5.41c1.92,1.92,5.3,9.33,5.44,9.65ZM4,28.66A4.8,4.8,0,0,0,3.35,32c.61,3.63,9.31,5,11,5.26C13.69,36,10.73,29.65,9,28S4.26,28.47,4,28.66Z"/><path class="cls-3" d="M14.89,37.32c-.41-.16-10.07-4.07-9.66-8.32a4.9,4.9,0,0,1,1.64-3.29l0,0a8,8,0,0,1,2.15-.55,3.1,3.1,0,0,1,3.28,1.29c1.36,2.35,2.7,10.39,2.76,10.73ZM7,26A4.75,4.75,0,0,0,5.53,29c-.36,3.66,7.69,7.26,9.22,7.91-.25-1.44-1.49-8.29-2.68-10.36S7.33,25.84,7,26Z"/><path class="cls-3" d="M15.3,37.14c-.36-.26-8.67-6.54-7.18-10.53a4.88,4.88,0,0,1,2.44-2.76l0,0a8.7,8.7,0,0,1,2.23,0A3.07,3.07,0,0,1,15.64,26c.71,2.62-.07,10.73-.11,11.08Zm-4.64-13A4.71,4.71,0,0,0,8.4,26.71c-1.29,3.44,5.55,9,6.86,10,.13-1.46.71-8.4.1-10.7S11,24.09,10.66,24.13Z"/><path class="cls-1" d="M33.9,76.93a2,2,0,0,0,1.61.92c.11,0,.33,0,.59-.59h0c.95-2,1-3.16.39-4.8a8.1,8.1,0,0,0-2.17-2.75,18,18,0,0,1-2.62-3c-3-4.58-.34-8.3,1.44-10.76.47-.65.92-1.27,1.27-1.87,1.58-2.72,2.25-5,2.12-7.15-.11-1.78-.81-2.72-2.38-4.69l-.5-.61c-2.57-3.25-2.17-5-.22-7.9l.09-.14c.29-.43.6-.84.9-1.25a13.05,13.05,0,0,0,1.18-1.79,13.88,13.88,0,0,0-.77-13.47,1.37,1.37,0,0,0-2.07-.4,1.22,1.22,0,0,0-.56,1.85c3.52,5.86.84,9.92-1.12,12.89a16.46,16.46,0,0,0-2.1,3.9,7.62,7.62,0,0,0,0,4.58,6.12,6.12,0,0,0,1.56,2.17,12.1,12.1,0,0,1,2.4,3.33c1.67,3.76-1,7.34-2.75,9.71-.42.56-.82,1.09-1,1.47A14.07,14.07,0,0,0,27,62a8.17,8.17,0,0,0,1.22,5.23,42.23,42.23,0,0,0,4.14,4.2,2.75,2.75,0,0,0-2.14-.27L31,74l2.77,1.29A1.56,1.56,0,0,0,33.9,76.93Z"/><circle class="cls-2" cx="32.79" cy="16.79" r="6.43"/><path class="cls-3" d="M32.74,15c-.3-.37-7.11-9.11-4.47-12.79A5.2,5.2,0,0,1,31.53,0h0a9,9,0,0,1,2.27.64c1.53.67,2.33,1.68,2.33,2.93,0,2.89-3,11-3.16,11.35ZM31.55.32a5,5,0,0,0-3,2c-2.27,3.18,3.23,10.78,4.29,12.19.54-1.46,3-8.43,3-11S31.88.36,31.55.32Z"/><path class="cls-3" d="M33.48,15l-.27,0c-.19-.43-4.5-10.63-1-13.52A5.25,5.25,0,0,1,35.91.25h0a8.36,8.36,0,0,1,2,1.2c1.29,1,1.81,2.23,1.49,3.44C38.73,7.68,33.7,14.74,33.48,15ZM35.62.55a5.11,5.11,0,0,0-3.21,1.19c-3,2.48.32,11.24,1,12.88.9-1.27,5.12-7.35,5.78-9.8S36.16.69,35.86.56Z"/><path class="cls-3" d="M33.91,15.28l-.26-.1c-.06-.46-1.59-11.44,2.53-13.31a5.23,5.23,0,0,1,3.91-.25l0,0a9,9,0,0,1,1.66,1.69C42.76,4.67,43,6,42.32,7,40.88,9.53,34.2,15.05,33.91,15.28Zm4.57-13.6a5.32,5.32,0,0,0-2.17.47c-3.55,1.62-2.59,11-2.38,12.7,1.2-1,6.85-5.78,8.12-8s-1.84-4.77-2.1-5A4.5,4.5,0,0,0,38.48,1.68Z"/><path class="cls-3" d="M34.26,15.62,34,15.46C34.1,15,35.46,4,39.93,3.25A5.24,5.24,0,0,1,43.76,4l0,0A8.87,8.87,0,0,1,45,6.11c.61,1.56.46,2.84-.43,3.73C42.48,11.88,34.6,15.47,34.26,15.62ZM40.85,3.49a4.54,4.54,0,0,0-.87.08c-3.85.64-5.34,9.9-5.59,11.65,1.41-.66,8.11-3.81,9.91-5.61s-.54-5.08-.74-5.34A4.93,4.93,0,0,0,40.85,3.49Z"/><path class="cls-3" d="M34.51,16.05l-.17-.22c.18-.44,4.34-10.7,8.85-10.27a5.23,5.23,0,0,1,3.5,1.74l0,0a8.47,8.47,0,0,1,.59,2.29c.18,1.65-.3,2.86-1.38,3.48C43.42,14.55,34.88,16,34.51,16.05Zm8.4-10.18c-3.81,0-7.49,8.22-8.17,9.82,1.54-.27,8.83-1.59,11-2.85s.8-5,.67-5.36a5.05,5.05,0,0,0-3.27-1.6Z"/><path class="cls-3" d="M42.59,17c-3.49,0-7.69-.41-7.94-.43l-.12-.25c.29-.38,7-9.22,11.21-7.63a5.23,5.23,0,0,1,2.93,2.58v0a8.54,8.54,0,0,1,0,2.37,3.3,3.3,0,0,1-2.23,3A17.08,17.08,0,0,1,42.59,17ZM35,16.23c1.55.14,8.93.76,11.38.1s2.08-4.67,2-5a5.06,5.06,0,0,0-2.74-2.4C42,7.56,36.05,14.84,35,16.23Z"/><path class="cls-3" d="M46,20.17c-2.88,0-11-3-11.35-3.16l0-.27c.37-.3,9.11-7.11,12.8-4.47a5.21,5.21,0,0,1,2.16,3.26v0a8.73,8.73,0,0,1-.63,2.27C48.26,19.37,47.25,20.17,46,20.17ZM35,16.81c1.46.54,8.43,3,11,3s3.21-4,3.25-4.3a5,5,0,0,0-2-3C44,10.25,36.44,15.75,35,16.81Z"/><path class="cls-3" d="M45.37,23.57a2.86,2.86,0,0,1-.7-.09c-2.78-.75-9.84-5.78-10.14-6l0-.27c.43-.19,10.64-4.5,13.52-1a5.27,5.27,0,0,1,1.25,3.71v0a9,9,0,0,1-1.21,2A3.6,3.6,0,0,1,45.37,23.57ZM35,17.39c1.27.9,7.36,5.12,9.81,5.78s4.12-3,4.25-3.32a5,5,0,0,0-1.18-3.44C45.35,13.39,36.59,16.73,35,17.39Z"/><path class="cls-3" d="M43.87,26.69a2.55,2.55,0,0,1-1.33-.37c-2.5-1.44-8-8.12-8.25-8.41l.1-.26c.47-.06,11.44-1.59,13.32,2.53A5.26,5.26,0,0,1,48,24.09l0,0a8.32,8.32,0,0,1-1.69,1.66A4.09,4.09,0,0,1,43.87,26.69Zm-9.15-8.76c1,1.19,5.78,6.85,8,8.12s4.76-1.84,5-2.1a5.14,5.14,0,0,0-.25-3.64C45.8,16.76,36.47,17.72,34.72,17.93Z"/><path class="cls-3" d="M41.72,29.32a2.69,2.69,0,0,1-2-.8c-2-2-5.64-9.92-5.79-10.26l.16-.22c.47.06,11.46,1.42,12.21,5.89a5.26,5.26,0,0,1-.77,3.83l0,0A8.87,8.87,0,0,1,43.46,29,4.74,4.74,0,0,1,41.72,29.32ZM34.36,18.39C35,19.8,38.17,26.5,40,28.3s5.08-.54,5.35-.74A5.13,5.13,0,0,0,46,24C45.36,20.13,36.11,18.64,34.36,18.39Zm11.06,9.28Z"/><path class="cls-3" d="M39.29,31.34a3,3,0,0,1-2.83-1.42c-1.44-2.5-2.87-11-2.93-11.41l.21-.17c.44.18,10.71,4.34,10.27,8.85a5.23,5.23,0,0,1-1.74,3.5l0,0A8.74,8.74,0,0,1,40,31.3,5.07,5.07,0,0,1,39.29,31.34Zm-5.4-12.6c.26,1.54,1.58,8.83,2.85,11s5,.8,5.35.67a5.05,5.05,0,0,0,1.6-3.27C44.07,23.27,35.51,19.44,33.89,18.74Zm8.28,11.83h0Z"/><path class="cls-3" d="M37.21,32.75a8.41,8.41,0,0,1-1.27-.09c-1.64-.26-2.68-1-3-2.23-.75-2.79.08-11.42.11-11.78l.26-.12c.37.29,9.22,7,7.63,11.21a5.26,5.26,0,0,1-2.59,2.93h0A7,7,0,0,1,37.21,32.75ZM33.34,19c-.14,1.55-.75,8.93-.1,11.38s4.67,2.08,5,2a5.06,5.06,0,0,0,2.4-2.74C42,26,34.73,20.05,33.34,19Z"/><path class="cls-3" d="M34,33.57a8.65,8.65,0,0,1-2.28-.63c-1.52-.68-2.33-1.69-2.33-2.94,0-2.88,3-11,3.16-11.35l.28,0c.29.37,7.1,9.11,4.47,12.8a5.24,5.24,0,0,1-3.26,2.16ZM32.76,19c-.53,1.46-3,8.43-3,11s4,3.21,4.3,3.25a5,5,0,0,0,3-2C39.32,28,33.82,20.44,32.76,19Z"/><path class="cls-3" d="M30,33.34h-.36a9.24,9.24,0,0,1-2-1.21c-1.29-1-1.81-2.23-1.48-3.44.74-2.78,5.77-9.84,6-10.14l.27,0c.19.43,4.51,10.64,1,13.52A5.43,5.43,0,0,1,30,33.34ZM29.72,33a5,5,0,0,0,3.45-1.18c3-2.48-.33-11.24-1-12.88-.89,1.27-5.12,7.35-5.78,9.81S29.41,32.88,29.72,33Z"/><path class="cls-3" d="M27.09,32.21a4.49,4.49,0,0,1-1.6-.26l0,0a8.13,8.13,0,0,1-1.65-1.69c-1-1.34-1.18-2.62-.55-3.7,1.44-2.5,8.13-8,8.41-8.25l.26.1c.07.47,1.6,11.44-2.53,13.32A5.54,5.54,0,0,1,27.09,32.21Zm-1.47-.54a5.14,5.14,0,0,0,3.64-.25c3.56-1.62,2.6-11,2.38-12.7-1.19,1-6.85,5.78-8.12,8S25.36,31.46,25.62,31.67Z"/><path class="cls-3" d="M24.7,30.4a5.1,5.1,0,0,1-2.89-.85l0,0a8.87,8.87,0,0,1-1.16-2.06c-.6-1.55-.45-2.84.43-3.72,2-2,9.92-5.64,10.26-5.79l.22.16c-.05.47-1.42,11.46-5.89,12.21A6.28,6.28,0,0,1,24.7,30.4ZM22,29.3a5,5,0,0,0,3.57.71c3.86-.65,5.34-9.9,5.59-11.65-1.41.65-8.11,3.81-9.91,5.6S21.81,29,22,29.3Z"/><path class="cls-3" d="M22.67,28h-.29a5.23,5.23,0,0,1-3.5-1.74l0,0A8.74,8.74,0,0,1,18.27,24c-.18-1.66.3-2.86,1.38-3.49,2.5-1.44,11.05-2.87,11.41-2.93l.17.21C31.06,18.17,27.07,28,22.67,28Zm-3.53-1.93a5.06,5.06,0,0,0,3.28,1.6c3.88.39,7.72-8.18,8.41-9.8-1.53.26-8.82,1.58-11,2.85S19,25.78,19.14,26.09Z"/><path class="cls-3" d="M20.93,25.13a3.14,3.14,0,0,1-1.1-.19,5.26,5.26,0,0,1-2.93-2.59v0a8.54,8.54,0,0,1,0-2.37c.26-1.64,1-2.68,2.24-3,2.78-.75,11.41.08,11.78.11l.11.26C30.78,17.65,25.13,25.13,20.93,25.13ZM17.2,22.24A5.06,5.06,0,0,0,20,24.64c3.66,1.37,9.57-5.91,10.66-7.3-1.55-.14-8.93-.75-11.38-.1S17.16,21.91,17.2,22.24Z"/><path class="cls-3" d="M20.29,21.91a3.59,3.59,0,0,1-2.12-.6A5.23,5.23,0,0,1,16,18.05v0a8.89,8.89,0,0,1,.64-2.28c.67-1.52,1.68-2.33,2.93-2.33,2.89,0,11,3,11.35,3.16l0,.28C30.65,17.08,24.46,21.91,20.29,21.91Zm-4-3.89a5,5,0,0,0,2,3c3.18,2.27,10.78-3.23,12.19-4.29-1.46-.53-8.43-3-11-3S16.36,17.69,16.32,18Z"/><path class="cls-3" d="M21.37,18.73a4.88,4.88,0,0,1-3.88-1.36,5.24,5.24,0,0,1-1.24-3.71v0a8.57,8.57,0,0,1,1.2-2c1-1.29,2.23-1.81,3.44-1.48,2.78.74,9.84,5.77,10.14,6l0,.27C30.7,16.5,25.42,18.73,21.37,18.73Zm-4.81-5a5.07,5.07,0,0,0,1.18,3.45c2.48,3,11.24-.33,12.88-1-1.27-.9-7.35-5.12-9.8-5.78S16.69,13.41,16.56,13.72Z"/><path class="cls-3" d="M26.26,16.25c-3.34,0-7.33-.52-8.39-2.86a5.2,5.2,0,0,1-.25-3.9l0,0A8.77,8.77,0,0,1,19.33,7.8c1.34-1,2.62-1.18,3.7-.55,2.5,1.44,8,8.13,8.25,8.41l-.1.26A37.84,37.84,0,0,1,26.26,16.25ZM17.91,9.62a5.05,5.05,0,0,0,.24,3.64c1.62,3.56,11,2.6,12.7,2.38-1-1.19-5.78-6.85-8-8.12S18.11,9.36,17.91,9.62Z"/><path class="cls-3" d="M31.46,15.53C31,15.48,20,14.11,19.25,9.64A5.19,5.19,0,0,1,20,5.81l0,0a8.87,8.87,0,0,1,2.06-1.16c1.56-.6,2.84-.45,3.73.43,2,2,5.63,9.92,5.78,10.26ZM20.27,6a5,5,0,0,0-.7,3.58c.64,3.86,9.9,5.34,11.65,5.59-.66-1.41-3.81-8.11-5.61-9.91S20.53,5.81,20.27,6Z"/><path class="cls-3" d="M31.83,15.23c-.44-.17-10.7-4.34-10.27-8.85a5.27,5.27,0,0,1,1.74-3.5l0,0a8.47,8.47,0,0,1,2.29-.59c1.65-.18,2.86.3,3.48,1.38,1.44,2.5,2.88,11,2.94,11.41ZM23.48,3.14a5.06,5.06,0,0,0-1.6,3.28c-.38,3.88,8.18,7.72,9.81,8.41-.27-1.53-1.59-8.82-2.85-11S23.79,3,23.48,3.14Z"/><path class="cls-3" d="M32.27,15c-.38-.28-9.22-7-7.63-11.21A5.23,5.23,0,0,1,27.22.9h0a8.54,8.54,0,0,1,2.37,0c1.64.26,2.68,1,3,2.24.74,2.78-.09,11.41-.12,11.78ZM27.33,1.2A5.06,5.06,0,0,0,24.93,4c-1.37,3.65,5.91,9.57,7.3,10.66.14-1.55.76-8.93.1-11.38S27.66,1.16,27.33,1.2Z"/><polygon class="cls-4" points="10.79 76.57 19.83 110.57 45.11 110.57 54.29 76.07 10.79 76.57"/><rect class="cls-5" x="7.79" y="70.57" width="49" height="7"/></svg>